<svg id="Layer_1" enable-background="new 0 0 511.497 511.497" height="512" viewBox="0 0 511.497 511.497" width="512" xmlns="http://www.w3.org/2000/svg"><g><path d="m145.609 153.795v-.037c.082-16.412 6.674-31.271 17.7-41.967-5.282-2.088-11.041-3.192-16.773-3.192-11.485 0-89.74 0-101.221 0-24.903 0-45.193 19.981-45.315 44.49v138.518c0 10.429 8.457 18.854 18.854 18.854 10.413 0 18.854-8.442 18.854-18.854v-138.423c.152-5.051 4.212-6.876 8.063-6.876-.057 98.872.065 224.951 0 323.828 0 12.63 10.309 22.625 22.644 22.625 12.496 0 22.626-10.13 22.626-22.625v-180.848h9.769v180.848c0 12.496 10.129 22.625 22.626 22.625 11.699 0 22.174-8.83 22.174-22.625 0-.104 0-316.202 0-316.305v-.036z"/><ellipse cx="95.925" cy="57.067" rx="39.077" ry="39.077" transform="matrix(.924 -.383 .383 .924 -14.537 41.053)"/><path d="m305.432 153.795v-.037c.08-16.141 6.446-30.783 17.155-41.437-5.044-1.917-10.513-2.979-16.227-2.979h-50.53-.162-50.53c-10.829 0-20.928 3.796-28.86 10.28-9.983 8.16-16.386 20.454-16.455 34.21v138.518c0 8.579 5.736 15.808 13.578 18.092h.001c12.114 3.525 24.13-5.565 24.13-18.092.013-90.28.034-138.533.05-139.119.189-6.894 7.717-6.179 7.717-6.179v323.828c0 12.496 10.444 22.625 22.94 22.625s22.626-10.13 22.626-22.625v-180.85h9.768v180.849c0 12.496 10.13 22.625 22.626 22.625s22.173-10.13 22.173-22.625c0 0 .265-173.554 0-317.047z"/><ellipse cx="255.75" cy="57.809" rx="39.077" ry="39.077" transform="matrix(1 -.022 .022 1 -1.196 5.57)"/><path d="m511.496 153.737c-.123-24.462-20.464-44.396-45.314-44.396h-50.53-.162-50.53c-10.585 0-20.989 3.685-29.295 10.65-9.731 8.16-15.952 20.287-16.02 33.84v138.518c0 10.598 8.686 18.854 18.855 18.854 10.35 0 18.854-8.377 18.854-18.854 0-11.966 0-119.779 0-138.424.018-3.502 3.939-6.875 7.99-6.875v323.828c0 13.423 11.695 23.868 25.031 22.509 11.409-1.159 20.312-10.794 20.312-22.509v-180.848h9.769v180.849c0 12.496 10.13 22.625 22.626 22.625s22.717-10.13 22.717-22.625c-.03-38.833.022-271.875 0-323.828 4.095 0 7.972 3.412 7.989 6.781v138.518c0 10.413 8.441 18.854 18.854 18.854 10.531 0 18.855-8.614 18.855-18.854 0-11.959-.001-120.736-.001-138.613z"/><circle cx="415.571" cy="57.809" r="39.077"/></g></svg>